. 
 
http://www.torrenting.com          :     Once & For all ;)


               www . Torrenting . Com 

(((((((((((((= Enjoy No RAR releases =))))))))))))))))))))


...................................NFO:....................................

.Stranded.2001.FS.DVDRip.XviD-NGP
 
http://www.imdb.com/title/tt0283015/

A team of astronauts on the first mission to Mars crashes onto the surface, 
losing contact with Earth. With no other recourse, and help millions of miles 
away, the crew is forced to make desperate choices in order to stay alive. 
Will they be able to survive as the minutes slip away? 

Video: 640x480 Xvid @ 1100kbps
Audio: MP3 Stereo @ 128kbps
Language: English
Aspect: 4:3 (Fullscreen)

Format                           : AVI
Format/Info                      : Audio Video Interleave
File size                        : 946 MiB
Duration                         : 1h 38mn
Overall bit rate                 : 1 340 Kbps

Video
ID                               : 0
Format                           : MPEG-4 Visual
Format profile                   : Simple@L3
Format settings, BVOP            : No
Format settings, QPel            : No
Format settings, GMC             : No warppoints
Format settings, Matrix          : Default (H.263)
Codec ID                         : XVID
Codec ID/Hint                    : XviD
Duration                         : 1h 38mn
Bit rate                         : 1 199 Kbps
Width                            : 640 pixels
Height                           : 480 pixels
Display aspect ratio             : 4:3
Frame rate                       : 29.970 fps
Color space                      : YUV
Chroma subsampling               : 4:2:0
Bit depth                        : 8 bits
Scan type                        : Progressive
Bits/(Pixel*Frame)               : 0.130
Stream size                      : 846 MiB (89%)
Writing library                  : Magic0432

Audio
ID                               : 1
Format                           : MPEG Audio
Format version                   : Version 1
Format profile                   : Layer 3
Mode                             : Joint stereo
Mode extension                   : MS Stereo
Codec ID                         : 55
Codec ID/Hint                    : MP3
Duration                         : 1h 38mn
Bit rate mode                    : Constant
Bit rate                         : 128 Kbps
Channel(s)                       : 2 channels
Sampling rate                    : 44.1 KHz
Stream size                      : 90.3 MiB (10%)
Alignment                        : Aligned on interleaves
Interleave, duration             : 26 ms (0.78 video frame)

Note: Movie starts in widecreen and switches to full screen,
this is the only version I could find and the rip is not that good
but watchable. There should be a widescreen edition out there but 
have not found it yet... :(